<svg xmlns="http://www.w3.org/2000/svg" width="32" height="32"><g><title>background</title><rect id="canvas_background" width="582" height="402" x="-1" y="-1" fill="none"/></g><g><title>Layer 1</title><rect id="svg_1" width="32" height="32" fill="none"/><path id="svg_2" d="m24,14.059l0,-8.475l-5.586,-5.584l-18.414,0l0,32l24,0l0,-0.059c4.499,-0.5 7.998,-4.309 8,-8.941c-0.002,-4.634 -3.501,-8.444 -8,-8.941zm-6.002,-11.646l3.588,3.587l-3.588,0l0,-3.587zm-15.998,27.587l0,-28.002l14,0l0,6.001l6,0l0,6.06c-1.752,0.194 -3.352,0.89 -4.652,1.941l-13.348,0l0,2l11.517,0c-0.412,0.616 -0.743,1.289 -0.994,2l-10.523,0l0,2l10.059,0c-0.037,0.329 -0.059,0.661 -0.059,1c0,2.829 1.308,5.351 3.349,7l-15.349,0zm21,-0.117c-3.801,-0.009 -6.876,-3.084 -6.885,-6.883c0.009,-3.801 3.084,-6.876 6.885,-6.885c3.799,0.009 6.874,3.084 6.883,6.885c-0.009,3.799 -3.084,6.874 -6.883,6.883zm-3,-17.883l-16,0l0,2l16,0l0,-2z"/><polygon id="svg_4" points="28 22 24.002 22 24.002 18 22 18 22 22 18 22 18 24 22 24 22 28 24.002 28 24.002 24 28 24"/></g></svg>