<svg xmlns="http://www.w3.org/2000/svg" width="24" height="24"><g><title>background</title><rect id="canvas_background" width="582" height="402" x="-1" y="-1" fill="none"/></g><g><title>Layer 1</title><path id="svg_1" fill="#fff" stroke="null" d="m12,13.268655c1.1,0 2,-1.267724 2,-2.817164l0,-5.634327c0,-1.54944 -0.9,-2.817164 -2,-2.817164s-2,1.267724 -2,2.817164l0,5.634327c0,1.54944 0.9,2.817164 2,2.817164z"/><path id="svg_2" fill="#fff" d="m19.1,4.9l0,0c-0.3,-0.3 -0.6,-0.4 -1.1,-0.4c-0.8,0 -1.5,0.7 -1.5,1.5c0,0.4 0.2,0.8 0.4,1.1l0,0c0,0 0,0 0,0c0,0 0,0 0,0c1.3,1.3 2,3 2,4.9c0,3.9 -3.1,7 -7,7s-7,-3.1 -7,-7c0,-1.9 0.8,-3.7 2.1,-4.9l0,0c0.3,-0.3 0.5,-0.7 0.5,-1.1c0,-0.8 -0.7,-1.5 -1.5,-1.5c-0.4,0 -0.8,0.2 -1.1,0.4l0,0c-1.8,1.8 -2.9,4.3 -2.9,7.1c0,5.5 4.5,10 10,10s10,-4.5 10,-10c0,-2.8 -1.1,-5.3 -2.9,-7.1z"/></g></svg>